#!OML:ASF H:\BabyWalks\Project 1\Capture day 1\Session 1\baby.ASF
:FULLY-SPECIFIED
:DEGREES
750
root 13.3767 16.3564 -0.18728 334.536 78.2759 329.29
lowerback 21.9975 -0.544523 6.27247
upperback 8.15429 1.70352 7.25489
thorax -3.42437 1.12095 3.83403
lowerneck 0.90217 3.38499 11.7797
upperneck -12.8078 3.34583 -20.9765
head -3.19305 2.29686 -8.7295
rclavicle 1.98785e-014 3.18055e-015
rhumerus -48.5119 2.84369 -74.5941
rradius 36.2779
rwrist 16.0874
rhand -10.1831 -18.6744
rfingers 7.12502
rthumb 15.8073 -48.049
lclavicle 1.98785e-014 3.18055e-015
lhumerus -70.7722 -11.3987 111.617
lradius 46.7043
lwrist -5.79564
lhand 11.5274 10.4761
lfingers 7.12502
lthumb 36.5736 36.6496
rfemur -3.56163 11.3981 25.9116
rtibia 44.6903
rfoot -33.4177 5.24444
rtoes -14.8508
lfemur -32.0709 7.74001 -3.25398
ltibia 75.948
lfoot -26.6183 -29.8024
ltoes -13.4286
751
root 13.4897 16.3686 -0.184542 334.535 78.378 329.338
lowerback 22.0719 -0.413921 6.30055
upperback 8.14824 1.89638 7.32889
thorax -3.47536 1.21633 3.85133
lowerneck 1.03035 3.28672 11.8629
upperneck -12.5269 3.25318 -20.9526
head -3.1501 2.23975 -8.72902
rclavicle 1.59028e-014 3.81667e-014
rhumerus -47.2268 1.77142 -73.5141
rradius 36.7411
rwrist 15.781
rhand -13.2178 -19.5669
rfingers 7.12502
rthumb 12.8832 -49.1493
lclavicle 1.59028e-014 3.81667e-014
lhumerus -71.3501 -11.6844 112.191
lradius 47.3294
lwrist -4.59665
lhand 12.1759 11.1858
lfingers 7.12502
lthumb 37.1871 37.2017
rfemur -2.64215 11.5134 25.946
rtibia 43.7624
rfoot -33.2298 5.0555
rtoes -14.9115
lfemur -33.0798 7.42651 -3.54876
ltibia 75.6176
lfoot -26.7761 -28.9417
ltoes -14.0106
752
root 13.6069 16.3866 -0.182515 334.525 78.4845 329.31
lowerback 22.1121 -0.269399 6.34102
upperback 8.11432 2.10502 7.39259
thorax -3.53934 1.31813 3.84587
lowerneck 1.14754 3.18533 11.9334
upperneck -12.2446 3.15759 -20.8985
head -3.10675 2.17983 -8.71559
rclavicle 3.33958e-014 3.97569e-014
rhumerus -46.1437 0.898465 -72.6858
rradius 37.5007
rwrist 15.0383
rhand -16.397 -20.6329
rfingers 7.12502
rthumb 9.81719 -50.3841
lclavicle 3.33958e-014 3.97569e-014
lhumerus -71.9065 -11.9237 112.474
lradius 47.9866
lwrist -3.46593
lhand 12.4596 11.7589
lfingers 7.12502
lthumb 37.4552 37.7043
rfemur -1.71469 11.6672 25.9834
rtibia 42.6832
rfoot -32.9587 4.89701
rtoes -14.9641
lfemur -34.1058 7.13153 -3.8698
ltibia 75.017
lfoot -26.9446 -27.9817
ltoes -14.5872
753
root 13.7288 16.4105 -0.180934 334.567 78.6034 329.269
lowerback 22.1113 -0.11109 6.37709
upperback 8.05722 2.32394 7.43891
thorax -3.60779 1.42353 3.82088
lowerneck 1.24479 3.08492 11.995
upperneck -11.9723 3.0631 -20.8109
head -3.06381 2.11882 -8.68899
rclavicle -1.19271e-014 3.18055e-015
rhumerus -45.2476 0.285406 -72.114
rradius 38.5338
rwrist 13.9353
rhand -19.6467 -21.8153
rfingers 7.12502
rthumb 6.68092 -51.6899
lclavicle -1.19271e-014 3.18055e-015
lhumerus -72.4222 -12.1278 112.483
lradius 48.6469
lwrist -2.453
lhand 12.414 12.152
lfingers 7.12502
lthumb 37.4122 38.1088
rfemur -0.782151 11.8491 26.006
rtibia 41.4544
rfoot -32.6032 4.76002
rtoes -15.0357
lfemur -35.1409 6.83881 -4.22588
ltibia 74.1428
lfoot -27.0849 -26.9907
ltoes -15.0921
754
root 13.8552 16.44 -0.179419 334.595 78.7379 329.155
lowerback 22.0741 0.0573926 6.41984
upperback 7.98002 2.55108 7.46455
thorax -3.67858 1.53186 3.76723
lowerneck 1.31756 2.98246 12.0428
upperneck -11.7171 2.96494 -20.6739
head -3.02387 2.0538 -8.64312
rclavicle 3.97569e-015 -1.74931e-014
rhumerus -44.5235 -0.061057 -71.7763
rradius 39.805
rwrist 12.5964
rhand -22.8622 -23.0471
rfingers 7.12502
rthumb 3.5762 -52.9968
lclavicle 3.97569e-015 -1.74931e-014
lhumerus -72.8851 -12.317 112.239
lradius 49.2965
lwrist -1.5503
lhand 12.0817 12.3654
lfingers 7.12502
lthumb 37.098 38.4045
rfemur 0.163877 12.0468 26.028
rtibia 40.074
rfoot -32.1548 4.63714
rtoes -15.1094
lfemur -36.1759 6.5351 -4.59503
ltibia 73.0007
lfoot -27.1836 -26.0257
ltoes -15.491
755
root 13.9861 16.4742 -0.177629 334.585 78.8941 328.945
lowerback 22.0023 0.231458 6.46448
upperback 7.88571 2.7797 7.46871
thorax -3.74906 1.63988 3.68872
lowerneck 1.34782 2.87468 12.0945
upperneck -11.475 2.85724 -20.5015
head -2.98265 1.98087 -8.58548
rclavicle -3.18055e-014 -2.06736e-014
rhumerus -43.9507 -0.150766 -71.6343
rradius 41.2664
rwrist 11.1576
rhand -25.9067 -24.2477
rfingers 7.12502
rthumb 0.635887 -54.2265
lclavicle -3.18055e-014 -2.06736e-014
lhumerus -73.2793 -12.4968 111.77
lradius 49.9157
lwrist -0.74318
lhand 11.5074 12.4324
lfingers 7.12502
lthumb 36.5547 38.6107
rfemur 1.12953 12.2471 26.0522
rtibia 38.5423
rfoot -31.6004 4.51142
rtoes -15.1997
lfemur -37.2024 6.20302 -4.96497
ltibia 71.5993
lfoot -27.2438 -25.1193
ltoes -15.7739
756
root 14.1214 16.5126 -0.175304 334.466 79.0759 328.578
lowerback 21.8999 0.407077 6.51957
upperback 7.7771 3.00692 7.4507
thorax -3.81713 1.74644 3.58082
lowerneck 1.34878 2.76212 12.1314
upperneck -11.2656 2.74006 -20.2712
head -2.94894 1.90109 -8.50605
rclavicle -2.06736e-014 -6.99722e-014
rhumerus -43.5114 -0.0263551 -71.6448
rradius 42.8704
rwrist 9.71335
rhand -28.6857 -25.3018
rfingers 7.12502
rthumb -2.04821 -55.2717
lclavicle -2.06736e-014 -6.99722e-014
lhumerus -73.5972 -12.6831 111.102
lradius 50.4976
lwrist 0.00849762
lhand 10.7552 12.3985
lfingers 7.12502
lthumb 35.8423 38.7536
rfemur 2.12462 12.4369 26.0903
rtibia 36.8586
rfoot -30.9321 4.37282
rtoes -15.3322
lfemur -38.211 5.82618 -5.31375
ltibia 69.9551
lfoot -27.2531 -24.2921
ltoes -15.9386
757
root 14.261 16.5542 -0.17223 334.208 79.2873 328.03
lowerback 21.7706 0.57946 6.57878
upperback 7.65799 3.22585 7.41217
thorax -3.8804 1.84831 3.45093
lowerneck 1.30979 2.64658 12.1589
upperneck -11.0873 2.61478 -19.9932
head -2.91966 1.81501 -8.40912
rclavicle -2.38542e-014 -1.59028e-014
rhumerus -43.1803 0.276319 -71.7651
rradius 44.5694
rwrist 8.33031
rhand -31.1419 -26.1004
rfingers 7.12502
rthumb -4.4202 -56.0343
lclavicle -2.38542e-014 -1.59028e-014
lhumerus -73.8273 -12.8721 110.26
lradius 51.038
lwrist 0.702902
lhand 9.85643 12.2993
lfingers 7.12502
lthumb 34.9902 38.8577
rfemur 3.15379 12.6067 26.144
rtibia 35.0315
rfoot -30.1344 4.22293
rtoes -15.5409
lfemur -39.1913 5.39363 -5.62958
ltibia 68.0868
lfoot -27.2037 -23.5484
ltoes -15.9832
758
root 14.405 16.5981 -0.168355 333.765 79.529 327.261
lowerback 21.6208 0.745041 6.64375
upperback 7.52956 3.43322 7.35435
thorax -3.94044 1.94397 3.30047
lowerneck 1.22709 2.5267 12.1712
upperneck -10.936 2.47952 -19.6662
head -2.89323 1.72166 -8.29317
rclavicle -4.77083e-015 -4.77083e-014
rhumerus -42.946 0.71192 -71.9596
rradius 46.3271
rwrist 7.03618
rhand -33.2269 -26.5003
rfingers 7.12502
rthumb -6.43329 -56.3826
lclavicle -4.77083e-015 -4.77083e-014
lhumerus -73.9653 -13.0632 109.268
lradius 51.5254
lwrist 1.33525
lhand 8.84847 12.1594
lfingers 7.12502
lthumb 34.0334 38.9357
rfemur 4.19922 12.7456 26.2173
rtibia 33.1242
rfoot -29.2321 4.05316
rtoes -15.9284
lfemur -40.1412 4.8985 -5.89854
ltibia 66.044
lfoot -27.1147 -22.8751
ltoes -15.9148
759
root 14.553 16.644 -0.163619 333.114 79.7978 326.261
lowerback 21.461 0.901791 6.70832
upperback 7.39195 3.62662 7.27918
thorax -4.00257 2.0321 3.13558
lowerneck 1.11654 2.4064 12.1694
upperneck -10.8231 2.33929 -19.3006
head -2.87445 1.62514 -8.16275
rclavicle 7.95139e-015 -7.95139e-015
rhumerus -42.7974 1.24751 -72.2027
rradius 48.1076
rwrist 5.83091
rhand -34.9222 -26.406
rfingers 7.12502
rthumb -8.06965 -56.2319
lclavicle 7.95139e-015 -7.95139e-015
lhumerus -74.0098 -13.2458 108.144
lradius 51.9516
lwrist 1.88694
lhand 7.75739 11.9841
lfingers 7.12502
lthumb 32.9963 38.985
rfemur 5.27364 12.8545 26.309
rtibia 31.1117
rfoot -28.1803 3.90215
rtoes -16.4357
lfemur -41.0439 4.34266 -6.11363
ltibia 63.8387
lfoot -26.9523 -22.2493
ltoes -15.7322
760
root 14.7028 16.6792 -0.159025 332.28 80.0908 325.059
lowerback 21.295 1.04703 6.76266
upperback 7.24712 3.80086 7.18589
thorax -4.06723 2.11012 2.96224
lowerneck 0.986796 2.28968 12.1503
upperneck -10.7503 2.19966 -18.9068
head -2.86411 1.52933 -8.02121
rclavicle -2.94201e-014 2.06736e-014
rhumerus -42.7202 1.85555 -72.4753
rradius 49.8923
rwrist 4.68354
rhand -36.2266 -25.7849
rfingers 7.12502
rthumb -9.32847 -55.5585
lclavicle -2.94201e-014 2.06736e-014
lhumerus -73.9585 -13.4002 106.895
lradius 52.3171
lwrist 2.32349
lhand 6.62811 11.7973
lfingers 7.12502
lthumb 31.9216 39.019
rfemur 6.36971 12.9176 26.4037
rtibia 29.0357
rfoot -26.9917 3.75739
rtoes -17.1845
lfemur -41.9492 3.73803 -6.27602
ltibia 61.5528
lfoot -26.6787 -21.6491
ltoes -15.4352
761
root 14.8589 16.7242 -0.153319 331.234 80.3963 323.634
lowerback 21.1297 1.17973 6.8102
upperback 7.09523 3.95621 7.0756
thorax -4.13753 2.17814 2.77947
lowerneck 0.847116 2.17816 12.118
upperneck -10.7116 2.06398 -18.4966
head -2.86112 1.4364 -7.87332
rclavicle 2.38542e-015 -9.54166e-015
rhumerus -42.7126 2.52145 -72.7729
rradius 51.6586
rwrist 3.56804
rhand -37.159 -24.6586
rfingers 7.12502
rthumb -10.228 -54.39
lclavicle 2.38542e-015 -9.54166e-015
lhumerus -73.815 -13.5173 105.533
lradius 52.6165
lwrist 2.6286
lhand 5.51424 11.5972
lfingers 7.12502
lthumb 30.8603 39.0252
rfemur 7.49619 12.9301 26.5049
rtibia 26.8842
rfoot -25.6379 3.65684
rtoes -18.1005
lfemur -42.7446 3.09398 -6.39009
ltibia 59.153
lfoot -26.2879 -21.0321
ltoes -14.9939
762
root 15.019 16.7682 -0.147394 330.006 80.7038 322.026
lowerback 20.971 1.30165 6.84963
upperback 6.94118 4.09506 6.94686
thorax -4.21137 2.23749 2.58576
lowerneck 0.696311 2.07483 12.069
upperneck -10.7087 1.93593 -18.0786
head -2.8651 1.34881 -7.72138
rclavicle 3.10104e-014 2.8625e-014
rhumerus -42.7616 3.2228 -73.0921
rradius 53.3938
rwrist 2.47256
rhand -37.7299 -23.1687
rfingers 7.12502
rthumb -10.7788 -52.8721
lclavicle 3.10104e-014 2.8625e-014
lhumerus -73.5768 -13.5888 104.065
lradius 52.8518
lwrist 2.79673
lhand 4.44394 11.3815
lfingers 7.12502
lthumb 29.8394 38.9978
rfemur 8.63723 12.8895 26.5989
rtibia 24.697
rfoot -24.1217 3.64859
rtoes -19.0954
lfemur -43.4738 2.4281 -6.45754
ltibia 56.7258
lfoot -25.7485 -20.3676
ltoes -14.3877
